<?xml version="1.0" standalone="no"?>
<!DOCTYPE svg PUBLIC "-//W3C//DTD SVG 20010904//EN"
 "http://www.w3.org/TR/2001/REC-SVG-20010904/DTD/svg10.dtd">
<svg version="1.0" xmlns="http://www.w3.org/2000/svg"
 width="1132.000000pt" height="1133.000000pt" viewBox="0 0 1132.000000 1133.000000"
 preserveAspectRatio="xMidYMid meet">

<g transform="translate(0.000000,1133.000000) scale(0.100000,-0.100000)"
fill="#000000" stroke="none">
<path d="M125 9679 c1 -10 4 -21 8 -24 4 -3 5 -2 2 1 -2 4 0 14 5 24 6 12 5
17 -4 17 -7 0 -12 -8 -11 -18z"/>
<path d="M89 9663 c-13 -16 -12 -17 4 -4 16 13 21 21 13 21 -2 0 -10 -8 -17
-17z"/>
<path d="M65 9630 c-3 -5 -1 -10 4 -10 6 0 11 5 11 10 0 6 -2 10 -4 10 -3 0
-8 -4 -11 -10z"/>
<path d="M6058 9633 c7 -3 16 -2 19 1 4 3 -2 6 -13 5 -11 0 -14 -3 -6 -6z"/>
<path d="M6150 9620 c-18 -12 -2 -12 25 0 13 6 15 9 5 9 -8 0 -22 -4 -30 -9z"/>
<path d="M6298 9623 c7 -3 16 -2 19 1 4 3 -2 6 -13 5 -11 0 -14 -3 -6 -6z"/>
<path d="M45 9600 c2 -27 10 -33 12 -10 1 11 -2 22 -6 24 -4 3 -7 -4 -6 -14z"/>
<path d="M3608 9603 c7 -3 16 -2 19 1 4 3 -2 6 -13 5 -11 0 -14 -3 -6 -6z"/>
<path d="M9 9583 c-13 -16 -12 -17 4 -4 9 7 17 15 17 17 0 8 -8 3 -21 -13z"/>
<path d="M3287 9549 c7 -7 15 -10 18 -7 3 3 -2 9 -12 12 -14 6 -15 5 -6 -5z"/>
<path d="M3240 9540 c-8 -5 -10 -10 -5 -10 6 0 17 5 25 10 8 5 11 10 5 10 -5
0 -17 -5 -25 -10z"/>
<path d="M6668 9543 c7 -3 16 -2 19 1 4 3 -2 6 -13 5 -11 0 -14 -3 -6 -6z"/>
<path d="M3205 9520 c1 -11 5 -23 10 -27 4 -5 4 -2 0 6 -6 11 -4 13 10 7 18
-7 18 -6 0 14 -22 25 -22 25 -20 0z"/>
<path d="M3255 9520 c-3 -6 1 -7 9 -4 18 7 21 14 7 14 -6 0 -13 -4 -16 -10z"/>
<path d="M6778 9513 c6 -2 18 -2 25 0 6 3 1 5 -13 5 -14 0 -19 -2 -12 -5z"/>
<path d="M3037 9504 c-3 -3 -4 -11 -3 -17 2 -7 1 -9 -1 -4 -7 11 -1433 9
-1433 -3 0 -5 -18 -10 -40 -10 -29 0 -40 -4 -40 -15 0 -12 -15 -15 -79 -15
-55 0 -81 -4 -83 -12 -4 -10 -149 -13 -681 -13 l-677 0 0 -3865 0 -3865 842
-842 842 -843 3971 0 3971 0 847 848 847 847 0 3746 0 3746 -272 6 c-149 4
-392 7 -540 7 -232 0 -268 2 -268 15 0 13 -24 15 -160 15 -88 0 -160 4 -160 9
0 5 -62 11 -137 14 -279 10 -663 19 -858 21 -110 1 -291 2 -402 4 l-203 2 0
33 0 34 -476 5 c-327 4 -479 9 -487 17 -15 15 -60 15 -51 -1 5 -8 0 -9 -15 -5
-19 4 -21 2 -16 -16 4 -15 3 -18 -3 -9 -7 10 -11 10 -21 -2 -17 -21 24 -49 51
-35 11 6 24 8 31 5 7 -2 5 -5 -5 -5 -9 -1 -20 -6 -24 -13 -5 -8 -2 -9 12 -4
10 4 15 4 11 0 -9 -9 22 -44 40 -44 7 0 13 -5 13 -12 0 -6 7 -3 15 8 13 18 14
18 8 -5 -5 -20 -3 -23 10 -18 9 3 19 1 23 -5 4 -7 3 -8 -4 -4 -18 11 -14 -3 7
-25 11 -12 24 -18 30 -14 7 3 10 2 9 -2 -2 -5 28 -40 67 -79 38 -38 79 -81 90
-95 11 -14 48 -62 81 -107 34 -44 64 -79 66 -76 3 2 5 -2 5 -8 0 -7 17 -40 38
-72 134 -210 241 -528 276 -820 15 -130 6 -489 -15 -616 -95 -557 -378 -970
-866 -1265 -52 -31 -96 -58 -98 -60 -1 -1 19 -10 45 -20 27 -10 107 -46 178
-80 530 -252 865 -640 1004 -1166 107 -402 102 -882 -13 -1299 -161 -585 -550
-1066 -1034 -1279 -264 -116 -549 -179 -1007 -222 -171 -17 -2615 -25 -2745
-9 -129 15 -200 34 -299 81 -205 99 -326 319 -360 653 -15 152 -15 6133 0
6261 6 50 19 125 30 167 10 42 16 85 13 95 -5 15 -4 15 5 3 9 -13 11 -13 11 1
0 9 18 52 39 95 21 44 42 89 46 102 4 13 11 19 17 16 7 -5 9 -1 5 9 -4 10 -2
16 6 14 7 -1 11 3 10 10 -2 8 4 10 14 6 10 -4 14 -2 10 4 -4 6 0 16 8 23 8 7
15 9 15 6 0 -4 16 5 36 21 20 15 31 29 25 31 -6 2 -9 7 -6 12 3 4 -4 6 -15 3
-11 -3 -17 -9 -14 -14 3 -5 10 -7 15 -4 5 4 9 1 9 -4 0 -14 -6 -14 -31 -1 -13
7 -19 7 -19 0 0 -5 5 -10 11 -10 5 0 7 -5 3 -11 -4 -8 -10 -5 -17 7 -17 30
-40 45 -49 31 -6 -9 -8 -9 -8 1 0 13 -12 16 -23 6z m46 -31 c10 -9 -13 -33
-32 -33 -14 1 -14 2 2 11 9 6 15 14 12 20 -7 10 8 13 18 2z m-2045 -81 c2 -8
-10 -12 -37 -12 -23 0 -41 4 -41 9 0 21 71 23 78 3z m-558 -2 c0 -5 -18 -10
-40 -10 -22 0 -40 5 -40 10 0 6 18 10 40 10 22 0 40 -4 40 -10z m2480 -40 c0
-5 -4 -10 -10 -10 -5 0 -10 5 -10 10 0 6 5 10 10 10 6 0 10 -4 10 -10z m4330
-46 c0 -2 -9 0 -20 6 -11 6 -20 13 -20 16 0 2 9 0 20 -6 11 -6 20 -13 20 -16z
m67 -33 c0 -11 -5 -18 -9 -15 -4 3 -5 11 -1 19 7 21 12 19 10 -4z m2106 -58
c-35 -2 -91 -2 -125 0 -35 2 -7 3 62 3 69 0 97 -1 63 -3z m-480 -50 c-35 -2
-91 -2 -125 0 -35 2 -7 3 62 3 69 0 97 -1 63 -3z m2000 -80 c-79 -2 -207 -2
-285 0 -79 1 -15 3 142 3 157 0 221 -2 143 -3z"/>
<path d="M7019 9462 c8 -6 9 -11 2 -13 -6 -2 7 -14 29 -27 47 -26 55 -21 9 7
-17 10 -30 22 -29 27 1 5 -4 10 -12 12 -10 3 -10 2 1 -6z"/>
<path d="M7099 9417 c6 -8 7 -18 3 -22 -4 -5 -1 -5 6 -1 7 4 12 2 12 -5 0 -8
4 -8 15 1 13 11 14 10 10 -2 -4 -11 2 -14 24 -14 17 0 29 2 26 4 -3 3 0 11 6
18 8 9 4 12 -18 9 -15 -2 -34 2 -40 7 -9 7 -13 7 -13 -1 0 -7 -5 -9 -10 -6 -6
4 -8 11 -5 16 4 5 -1 9 -11 9 -13 0 -14 -3 -5 -13z m91 -21 c0 -2 -7 -7 -16
-10 -8 -3 -12 -2 -9 4 6 10 25 14 25 6z"/>
<path d="M7238 9403 c22 -9 13 -25 -10 -17 -20 6 -21 5 -9 -10 12 -14 11 -16
-10 -16 -22 0 -22 0 -3 -15 17 -13 21 -12 37 10 10 14 25 25 33 25 30 0 13 25
-19 27 -17 0 -26 -1 -19 -4z"/>
<path d="M7340 9400 c0 -5 5 -10 10 -10 6 0 10 5 10 10 0 6 -4 10 -10 10 -5 0
-10 -4 -10 -10z"/>
<path d="M8758 9323 c23 -2 61 -2 85 0 23 2 4 4 -43 4 -47 0 -66 -2 -42 -4z"/>
<path d="M9138 9323 c12 -2 32 -2 45 0 12 2 2 4 -23 4 -25 0 -35 -2 -22 -4z"/>
<path d="M4240 7425 l0 -996 778 4 c741 3 783 5 915 26 152 24 322 75 401 120
82 48 166 121 223 196 73 94 157 267 190 390 25 92 27 116 27 300 1 161 -3
216 -17 280 -64 273 -201 439 -443 531 -151 58 -311 94 -537 120 -102 12 -290
17 -834 21 l-703 5 0 -997z"/>
<path d="M4240 4180 l0 -1120 798 0 c469 0 842 4 906 10 587 56 932 297 1059
740 32 110 47 235 47 390 -1 661 -334 999 -1068 1085 -102 12 -284 15 -934 15
l-808 0 0 -1120z"/>
<path d="M10995 1242 c-176 -175 -531 -526 -789 -780 l-470 -462 72 0 72 0
721 718 720 717 -3 62 -3 63 -320 -318z"/>
<path d="M0 1489 l0 -66 715 -711 714 -712 73 0 73 0 -135 132 c-217 213 -769
757 -1117 1103 l-323 320 0 -66z"/>
<path d="M0 843 c0 -10 7 -61 15 -113 60 -397 357 -681 740 -706 l90 -6 -420
421 c-231 231 -421 421 -422 421 -2 0 -3 -8 -3 -17z"/>
<path d="M10880 434 l-415 -416 90 6 c280 18 516 173 648 424 52 98 75 170 92
282 17 110 18 120 7 120 -4 0 -194 -187 -422 -416z"/>
</g>
</svg>
